<svg width="45" height="45" viewBox="0 0 45 45" fill="none" xmlns="http://www.w3.org/2000/svg">
<g clip-path="url(#clip0)">
<path d="M44.4502 41.8L31.6534 29.0032C34.1322 25.9414 35.6246 22.0508 35.6246 17.8133C35.6246 7.99219 27.6334 0.000986099 17.8123 0.000986099C7.99111 0.000986099 0 7.9921 0 17.8133C0 27.6344 7.9912 35.6256 17.8124 35.6256C22.0498 35.6256 25.9404 34.1332 29.0022 31.6544L41.799 44.4511C42.1646 44.8168 42.6446 45.0005 43.1246 45.0005C43.6047 45.0005 44.0846 44.8168 44.4503 44.4511C45.1833 43.7181 45.1833 42.533 44.4502 41.8ZM17.8124 31.8756C10.0574 31.8756 3.74999 25.5682 3.74999 17.8133C3.74999 10.0583 10.0574 3.75089 17.8124 3.75089C25.5673 3.75089 31.8747 10.0583 31.8747 17.8133C31.8747 25.5682 25.5672 31.8756 17.8124 31.8756Z" fill="black"/>
</g>
<defs>
<clipPath id="clip0">
<rect width="45" height="45" fill="white"/>
</clipPath>
</defs>
</svg>
